<svg xmlns="http://www.w3.org/2000/svg" xmlns:xlink="http://www.w3.org/1999/xlink" width="192.888" height="255.461"><defs><path id="a" d="M0 .143h20.883v31.893H0Z"/></defs><g fill="none" fill-rule="evenodd"><g transform="translate(0 -1.145) scale(8.00995)"><mask id="b" fill="#fff"><use xlink:href="#a" width="100%" height="100%"/></mask><path fill="#00a2ff" d="M20.883 14.787c-2.304 0-6.639.026-6.639.026V.733h-1.016c-5.473 0-7.053.06-9.513-.59 0 0 .053 2.444 2.571 3.772C4.051 6.1 3.39 9.337 3.39 12.713c0 3.376-.313 5.929-.719 7.926C1.768 25.083 0 28.535 0 28.535a9.921 9.921 0 0 0 4.193.113v3.388c9.053 0 16.69-5.385 16.69-15.404v-1.845" mask="url(#b)"/></g><path fill="#ffc600" d="M114.102 89.047v53.586a68.51 68.51 0 0 0 53.17-25.327l-53.17-28.26"/><path fill="#fafdfd" d="M114.102 142.641c-31.76 0-57.512-26.032-57.512-58.152 0-32.128 25.752-58.168 57.512-58.168z"/><path fill="#50505f" d="M101.102 75.598a13.377 13.377 0 0 1-13.297 13.457 13.377 13.377 0 0 1-13.288-13.457 13.377 13.377 0 0 1 13.296-13.44c7.337 0 13.297 6.015 13.297 13.44"/><path fill="#1eda69" d="M147.039 12.031a77.705 77.705 0 0 0-32.937-7.305v84.32h78.786v-4.621a79.747 79.747 0 0 0-45.85-72.394"/><path fill="#0087ff" d="M97.753 174.77c-10.292 27.738-34.57 48.564-64.151 53.666l-.024 27.01c36.733-7.97 64.272-40.996 64.272-80.525"/></g></svg>